<svg width="131" height="70" viewBox="0 0 131 70" fill="none" xmlns="http://www.w3.org/2000/svg">
<path d="M31.1172 29.1348H35V36.9414H31.1172V29.1348Z" fill="#DE0000"/>
<path d="M0 21.3281V44.7617H19.4414V48.6719H35V44.7617H70V21.3281H0ZM19.4414 40.8652H15.5586V29.1484H11.6621V40.8652H3.88281V25.2383H19.4414V40.8652ZM38.8828 40.8652H31.1035V44.7754H23.3242V25.2383H38.8828V40.8652ZM66.1172 40.8652H62.2344V29.1484H58.3516V40.8652H54.4687V29.1484H50.5859V40.8652H42.8066V25.2383H66.1445V40.8652H66.1172Z" fill="#DE0000"/>
<path d="M75.752 44.224C74.5467 44.224 73.5387 43.8187 72.728 43.008C71.928 42.1973 71.528 41.1947 71.528 40C71.528 38.8053 71.928 37.8027 72.728 36.992C73.5387 36.1813 74.5467 35.776 75.752 35.776C76.5307 35.776 77.24 35.9627 77.88 36.336C78.52 36.7093 79.0053 37.2107 79.336 37.84L77.56 38.88C77.4 38.5493 77.1547 38.288 76.824 38.096C76.504 37.904 76.1413 37.808 75.736 37.808C75.1173 37.808 74.6053 38.016 74.2 38.432C73.7947 38.8373 73.592 39.36 73.592 40C73.592 40.6293 73.7947 41.152 74.2 41.568C74.6053 41.9733 75.1173 42.176 75.736 42.176C76.152 42.176 76.52 42.0853 76.84 41.904C77.1707 41.712 77.416 41.4507 77.576 41.12L79.368 42.144C79.016 42.7733 78.52 43.28 77.88 43.664C77.24 44.0373 76.5307 44.224 75.752 44.224ZM86.4146 36H88.4786V44H86.4146V43.056C85.796 43.8347 84.9266 44.224 83.8066 44.224C82.74 44.224 81.8226 43.8187 81.0546 43.008C80.2973 42.1867 79.9186 41.184 79.9186 40C79.9186 38.816 80.2973 37.8187 81.0546 37.008C81.8226 36.1867 82.74 35.776 83.8066 35.776C84.9266 35.776 85.796 36.1653 86.4146 36.944V36ZM82.6066 41.632C83.0226 42.048 83.5506 42.256 84.1906 42.256C84.8306 42.256 85.3586 42.048 85.7746 41.632C86.2013 41.2053 86.4146 40.6613 86.4146 40C86.4146 39.3387 86.2013 38.8 85.7746 38.384C85.3586 37.9573 84.8306 37.744 84.1906 37.744C83.5506 37.744 83.0226 37.9573 82.6066 38.384C82.1906 38.8 81.9826 39.3387 81.9826 40C81.9826 40.6613 82.1906 41.2053 82.6066 41.632ZM96.4143 32.8H98.4783V44H96.4143V43.056C95.8063 43.8347 94.9423 44.224 93.8223 44.224C92.7449 44.224 91.8223 43.8187 91.0543 43.008C90.2969 42.1867 89.9183 41.184 89.9183 40C89.9183 38.816 90.2969 37.8187 91.0543 37.008C91.8223 36.1867 92.7449 35.776 93.8223 35.776C94.9423 35.776 95.8063 36.1653 96.4143 36.944V32.8ZM92.6063 41.632C93.0329 42.048 93.5663 42.256 94.2063 42.256C94.8463 42.256 95.3743 42.048 95.7903 41.632C96.2063 41.2053 96.4143 40.6613 96.4143 40C96.4143 39.3387 96.2063 38.8 95.7903 38.384C95.3743 37.9573 94.8463 37.744 94.2063 37.744C93.5663 37.744 93.0329 37.9573 92.6063 38.384C92.1903 38.8 91.9823 39.3387 91.9823 40C91.9823 40.6613 92.1903 41.2053 92.6063 41.632ZM102.11 40.848C102.387 41.8507 103.139 42.352 104.366 42.352C105.155 42.352 105.753 42.0853 106.158 41.552L107.822 42.512C107.033 43.6533 105.87 44.224 104.334 44.224C103.011 44.224 101.95 43.824 101.15 43.024C100.35 42.224 99.9499 41.216 99.9499 40C99.9499 38.7947 100.345 37.792 101.134 36.992C101.923 36.1813 102.937 35.776 104.174 35.776C105.347 35.776 106.313 36.1813 107.07 36.992C107.838 37.8027 108.222 38.8053 108.222 40C108.222 40.2667 108.195 40.5493 108.142 40.848H102.11ZM102.078 39.248H106.158C106.041 38.704 105.795 38.2987 105.422 38.032C105.059 37.7653 104.643 37.632 104.174 37.632C103.619 37.632 103.161 37.776 102.798 38.064C102.435 38.3413 102.195 38.736 102.078 39.248ZM118.511 35.776C119.428 35.776 120.159 36.0747 120.703 36.672C121.257 37.2693 121.535 38.0693 121.535 39.072V44H119.471V39.216C119.471 38.736 119.353 38.3627 119.119 38.096C118.884 37.8293 118.553 37.696 118.127 37.696C117.657 37.696 117.289 37.8507 117.023 38.16C116.767 38.4693 116.639 38.9173 116.639 39.504V44H114.575V39.216C114.575 38.736 114.457 38.3627 114.223 38.096C113.988 37.8293 113.657 37.696 113.231 37.696C112.772 37.696 112.404 37.8507 112.127 38.16C111.86 38.4693 111.727 38.9173 111.727 39.504V44H109.663V36H111.727V36.848C112.207 36.1333 112.948 35.776 113.951 35.776C114.932 35.776 115.657 36.16 116.127 36.928C116.66 36.16 117.455 35.776 118.511 35.776ZM128.332 36H130.54L127.628 44C127.212 45.152 126.657 45.984 125.964 46.496C125.281 47.0187 124.428 47.2533 123.404 47.2V45.28C123.959 45.2907 124.396 45.1733 124.716 44.928C125.047 44.6827 125.308 44.288 125.5 43.744L122.22 36H124.476L126.556 41.376L128.332 36Z" fill="#357B73"/>
</svg>
